# xmcd
#
# Track frame offsets: 
#        150
#        12204
#        23290
#        33227
#        45114
#        54877
#        67370
#        80239
#        88260
#        98775
#        108461
#        117346
#        127506
#        138320
#        149190
#        158918
#        168848
#        181383
#
# Disc length: 2571 seconds
#
# Revision: 0
# Processed by: cddbd v1.5.2PL0 Copyright (c) Steve Scherf et al.
# Submitted via: ExactAudioCopy v0.99pb4
#
DISCID=e80a0912
DTITLE=George Jones - Blue and Lonesome
DYEAR=2009
DGENRE=
TTITLE0=Oh Lonesome Me
TTITLE1=Life To Go
TTITLE2=Just Little Boy Blue
TTITLE3=Cup of Loneliness
TTITLE4=Nobody's Lonesome For Me
TTITLE5=There'll Be No Teardrops Tonight
TTITLE6=Color of The Blues
TTITLE7=Go Away With Me
TTITLE8=Talk To Me Lonesome Heart
TTITLE9=If You've Got The Money (I Got The Time)
TTITLE10=Singing The Blues
TTITLE11=Don't Stop The Music
TTITLE12=Nothing Can Stop Me
TTITLE13=Flame In My Heart
TTITLE14=Seasons Of My Heart
TTITLE15=All I Want To Do
TTITLE16=You Never Thought
TTITLE17=Just One More
EXTD=
EXTT0=
EXTT1=
EXTT2=
EXTT3=
EXTT4=
EXTT5=
EXTT6=
EXTT7=
EXTT8=
EXTT9=
EXTT10=
EXTT11=
EXTT12=
EXTT13=
EXTT14=
EXTT15=
EXTT16=
EXTT17=
PLAYORDER=
